# xmcd CD database file
#
# Track frame offsets:
#	150
#	27202
#	46269
#	66428
#	99391
#	113709
#	139796
#	161327
#	181336
#	201892
#	225505
#	254064
#	283978
#
# Disc length: 4148 seconds
#
# Revision: 0
# Processed by: cddbd v1.5.2PL0 Copyright (c) Steve Scherf et al.
# Submitted via: CDex 1.51
#
DISCID=b810320d
DTITLE=Jack McDuff - Screamin' - Sonny Stitt Meets Brother Jack
DYEAR=1962
DGENRE=Jazz
TTITLE0=He's a Real Gone Guy
TTITLE1=Soulful Drums
TTITLE2=After Hours
TTITLE3=Screamin'
TTITLE4=I Cover The Waterfront
TTITLE5=One O' Clock Jump
TTITLE6=All of Me
TTITLE7=Pam Ain't Blue
TTITLE8=Time After Time
TTITLE9=Ringin' In
TTITLE10=Nother Fu'ther
TTITLE11=When Sonny Gets Blue
TTITLE12=Thirty-Three, Ninety-Six
EXTD=YEAR: 1962
EXTT0=
EXTT1=
EXTT2=
EXTT3=
EXTT4=
EXTT5=
EXTT6=
EXTT7=
EXTT8=
EXTT9=
EXTT10=
EXTT11=
EXTT12=
PLAYORDER=
